<?xml version="1.0" encoding="utf-8" ?>
<!DOCTYPE svg PUBLIC "-//W3C//DTD SVG 1.1//EN" "http://www.w3.org/Graphics/SVG/1.1/DTD/svg11.dtd">
<svg xmlns="http://www.w3.org/2000/svg" viewBox="0 0 140 60"><path fill="#fff" d="M64.9 21.7L43.3 0H0v43.5h43.3zm20.1.5c-.3.1-1.1.2-1.4.3-.3.1-.9.4-.9 1s.5 1 1.2 1c1.2 0 1.8-.7 1.8-1.5v-1h-.1c0 .1-.3.1-.6.2zm7.3-2.7c-1 0-1.7.8-1.7 2.4s.6 2.4 1.7 2.4c1.2 0 1.8-.9 1.8-2.4s-.6-2.4-1.8-2.4z"/><path fill="#fff" d="M108.1 21.7c0-12-9.7-21.7-21.5-21.7C74.6.1 65 9.8 65 21.7c0 12 9.6 21.6 21.6 21.6 11.8.1 21.5-9.6 21.5-21.6zm-29 4.2H77v-6.4h-1V18h1v-.5c0-1 .3-1.7.8-2.1.5-.4 1.2-.5 1.8-.5h1v1.7H80c-.5 0-.9.3-.9.9v.5h1.5v1.5h-1.5v6.4zm8.9 0h-2c-.1-.2-.2-.5-.2-.8h-.1c-.1.5-1 1-2.3 1s-2.8-.7-2.8-2.4c0-1.8 1.5-2.4 2.7-2.6.7-.1 1.5-.2 1.8-.2.4-.1.6-.2.6-.6 0-.6-.4-1-1.3-1-.7 0-1.4.4-1.4 1.2l-1.8-.1c.2-1.8 1.5-2.6 3.3-2.6 1.9 0 3.3.9 3.3 2.6v4.7c-.1.4.1.6.2.8zm8.1 0h-2l-.1-.8c-.3.4-.9 1-2.2 1-1.8 0-3.3-1.4-3.3-4.2 0-2.7 1.5-4.2 3.3-4.2 1.1 0 1.7.4 2.2 1.1v-4h2.1v11.1zM57 54.5c-.3-1.3-1.1-2-2.4-2-1.5 0-2.6 1.1-2.6 2.7 0 1.5.9 2.7 2.6 2.7 1.5 0 2.3-1.1 2.5-1.8h-1.4c-.1.4-.5.6-1 .6-.6 0-1.1-.4-1.2-1.2h3.7c-.1-.3-.1-.7-.2-1zm-3.6 0c.2-.7.6-.9 1.1-.9.6 0 1 .3 1.1.9h-2.2zm-13.5-1.3c-.3-.4-.7-.7-1.5-.7-1.2 0-2.2 1-2.2 2.7 0 1.8 1 2.7 2.2 2.7.9 0 1.2-.4 1.4-.6l.1.5h1.3v-7.2h-1.4v2.6h.1zm-1.2 3.5c-.7 0-1.1-.5-1.1-1.5s.4-1.6 1.1-1.6c.8 0 1.2.6 1.2 1.6s-.4 1.5-1.2 1.5zm8.2-2.2c-.3-1.3-1.1-2-2.4-2-1.5 0-2.6 1.1-2.6 2.7 0 1.5.9 2.7 2.6 2.7 1.5 0 2.3-1.1 2.5-1.8h-1.4c-.2.4-.5.6-1 .6-.6 0-1.1-.4-1.2-1.2h3.7c0-.3-.1-.7-.2-1zm-3.5 0c.2-.7.6-.9 1.1-.9.6 0 1 .3 1.1.9h-2.2zm16.8.1c-.4-.1-.8-.1-1.1-.2-.2-.1-.3-.2-.3-.4 0-.4.4-.5.8-.5s.8.1.9.4l.1.3h1.2c0-.3-.1-.7-.2-.8-.2-.4-.9-.9-1.9-.9-1.3 0-2.1.7-2.1 1.6 0 1.1.8 1.4 1.8 1.6.6.1 1.3.2 1.3.6 0 .4-.5.6-.9.6-.6 0-.9-.2-1-.4-.1-.1-.1-.3-.1-.4h-1.2c0 .4.1.7.2 1 .4.5 1.1.9 2 .9 1.4 0 2.3-.7 2.3-1.8s-.9-1.5-1.8-1.6zm-10.3-4h1.4v7.2h-1.4zm-32.1 1.8c-.7 0-1.2.4-1.5.9-.1-.2-.2-.3-.3-.5-.3-.3-.7-.4-1.2-.4-.6 0-1.1.3-1.4.7v-.6H12v5.2h1.4V55c0-.3 0-.7.1-.9s.3-.4.7-.4c.5 0 .8.3.8.9v3.2h1.4V55c0-.3.1-.7.2-.9s.4-.4.7-.4c.5 0 .8.3.8.9v3.2h1.4v-3.2c0-.8-.1-1.3-.5-1.6-.3-.4-.7-.6-1.2-.6zm-9.1 0c-.9 0-1.8.4-2.3 1.3-.2.4-.3.8-.3 1.4 0 .6.1 1 .3 1.4.5.9 1.4 1.3 2.3 1.3s1.8-.4 2.3-1.3c.2-.4.3-.8.3-1.4 0-.6-.1-1-.3-1.4-.5-.9-1.4-1.3-2.3-1.3zM9.8 56c-.2.5-.5.8-1.1.8s-1-.3-1.1-.8c-.1-.3-.1-.5-.1-.8s0-.6.1-.8c.2-.5.5-.8 1.1-.8.6 0 1 .3 1.1.8.1.2.1.5.1.8.1.3 0 .5-.1.8zM1 57.8h1.5v-3h3.1v-1.3H2.5v-1.6h3.6v-1.3H1zm27.7-5.4c-.6 0-1.2.3-1.5.7v-.6h-1.4v5.2h1.4V55c0-.3.1-.7.2-.9.1-.3.4-.5.8-.5.6 0 .8.5.8 1v3.1h1.4v-3.2c0-.8-.2-1.3-.6-1.6-.2-.3-.6-.5-1.1-.5zm4.4 4.2c-.1-.1-.2-.3-.2-.5v-2.5h1v-1h-1V51h-1.4v1.6h-.6v1h.6v2.8c0 .5.1.8.4 1.1s.6.3 1 .3h.9v-1.1h-.4c-.1 0-.2 0-.3-.1zM25 54.5c-.3-1.3-1.1-2-2.4-2-1.5 0-2.6 1.1-2.6 2.7 0 1.5.9 2.7 2.6 2.7 1.5 0 2.3-1.1 2.5-1.8h-1.4c-.2.4-.5.6-1 .6-.6 0-1.1-.4-1.2-1.2h3.7c-.1-.3-.1-.7-.2-1zm-3.5 0c.2-.7.6-.9 1.1-.9s1 .3 1.1.9h-2.2zm71-1.3c-.3-.4-.7-.7-1.5-.7-1.2 0-2.2 1-2.2 2.7 0 1.8 1 2.7 2.2 2.7.9 0 1.2-.4 1.4-.6l.1.5h1.3v-7.2h-1.4l.1 2.6zm-1.2 3.5c-.7 0-1.1-.5-1.1-1.5s.4-1.6 1.1-1.6c.8 0 1.2.6 1.2 1.6s-.4 1.5-1.2 1.5zm30.3-2.1c-.4-.1-.8-.1-1.1-.2-.2-.1-.3-.2-.3-.4 0-.4.4-.5.8-.5s.8.1.9.4v.3h1.2c0-.3-.1-.7-.2-.8-.2-.4-.9-.9-1.9-.9-1.3 0-2.1.7-2.1 1.6 0 1.1.8 1.4 1.8 1.6.6.1 1.3.2 1.3.6 0 .4-.5.6-.9.6-.6 0-.9-.2-1-.4-.1-.1-.1-.3-.1-.4h-1c0 .4.1.7.2 1 .4.5 1.1.9 2 .9 1.4 0 2.3-.7 2.3-1.8s-1-1.5-1.9-1.6zm-12.3-3.8c-.3-.1-.9-.2-1.3-.2h-3v7.2h3c.4 0 1-.1 1.3-.2 1.1-.4 1.8-1.5 1.8-3.4s-.8-3-1.8-3.4zm-.7 5.6c-.2.1-.6.1-.9.1h-1.3v-4.8h1.2c.2 0 .7.1.9.1.6.3 1 .8 1 2.3.1 1.5-.3 2-.9 2.3zm3.3-5.8h1.4v1.3h-1.4zm0 2h1.4v5.2h-1.4zm4.8 2c-.4-.1-.8-.1-1.1-.2-.2-.1-.3-.2-.3-.4 0-.4.4-.5.8-.5s.8.1.9.4l.1.3h1.2c0-.3-.1-.7-.2-.8-.3-.4-.9-.9-1.9-.9-1.3 0-2.1.7-2.1 1.6 0 1.1.8 1.4 1.8 1.6.6.1 1.3.2 1.3.6 0 .4-.5.6-.9.6-.6 0-.9-.2-1-.4-.1-.1-.1-.3-.1-.4H114c0 .4.1.7.2 1 .4.5 1.1.9 2 .9 1.4 0 2.3-.7 2.3-1.8.1-1.1-.9-1.5-1.8-1.6zm21.4-2l-.9 3c0 .2-.1.2-.1.3 0-.1 0-.2-.1-.3l-1-3h-1.5l1.5 4.1c.2.4.2.8.2 1s0 .4-.1.5c-.2.1-.3.2-.6.2h-.5v1.1h1.2c.4 0 .6-.1.9-.4.3-.3.4-.6.5-1l1.9-5.5h-1.4zm-5.6-.2c-.6 0-1.2.3-1.5.7v-.6h-1.4v5.2h1.4V55c0-.3.1-.7.2-.9.1-.3.4-.5.8-.5.6 0 .8.5.8 1v3.1h1.4v-3.2c0-.8-.2-1.3-.6-1.6-.2-.3-.6-.5-1.1-.5zm-3.7 2.1c-.3-1.3-1.1-2-2.4-2-1.5 0-2.6 1.1-2.6 2.7 0 1.5.9 2.7 2.6 2.7 1.5 0 2.3-1.1 2.5-1.8h-1.4c-.2.4-.5.6-1 .6-.6 0-1.1-.4-1.2-1.2h3.7c-.1-.3-.1-.7-.2-1zm-3.5 0c.2-.7.6-.9 1.1-.9s1 .3 1.1.9h-2.2zm-49.1 2.1c-.1-.1-.2-.3-.2-.5v-2.5h1v-1h-1V51h-1.4v1.6h-.5v1h.5v2.8c0 .5.1.8.4 1.1s.6.3 1 .3h1v-1.1h-.4c-.2 0-.3 0-.4-.1zm24.2-6h1.4v7.2h-1.4zm-33.7 0l-2.4 7.2h1.5l.5-1.5h2.5l.4 1.5h1.5l-2.4-7.2h-1.6zm-.1 4.5l.8-2.7c0-.2.1-.3.1-.4 0 .1 0 .2.1.4l.8 2.7h-1.8z"/><path fill="#fff" d="M74 52.6h.2v-.1h-.4c-.3 0-.5.1-.7.2-.2.1-.3.4-.5.6v-.7h-1.4v5.2h1.4v-2.4c0-.2 0-.5.1-.7.2-.5.6-.8 1.1-.8h.3v-.2H74v-1.1zm6 2c-.4-.1-.8-.1-1.1-.2-.2-.1-.3-.2-.3-.4 0-.4.4-.5.8-.5s.8.1.9.4l.1.3h1.2c0-.3-.1-.7-.2-.8-.3-.4-.9-.9-1.9-.9-1.3 0-2.1.7-2.1 1.6 0 1.1.8 1.4 1.8 1.6.6.1 1.3.2 1.3.6 0 .4-.5.6-.9.6-.6 0-.9-.2-1-.4-.1-.1-.1-.3-.1-.4h-1.2c0 .4.1.7.2 1 .4.5 1.1.9 2 .9 1.4 0 2.3-.7 2.3-1.8s-.9-1.5-1.8-1.6z"/><path fill="#fff" d="M74 52.6h.2v1H74zm25.5 1.9c-.3-1.3-1.1-2-2.4-2-1.5 0-2.6 1.1-2.6 2.7 0 1.5.9 2.7 2.6 2.7 1.5 0 2.3-1.1 2.5-1.8h-1.4c-.2.4-.5.6-1 .6-.6 0-1.1-.4-1.2-1.2h3.7c0-.3-.1-.7-.2-1zm-3.5 0c.2-.7.6-.9 1.1-.9s1 .3 1.1.9H96zm-11.4-1.9H86v5.2h-1.4zm0-2H86v1.3h-1.4z"/></svg>
