<?xml version="1.0" encoding="utf-8"?>
<!-- Generator: Adobe Illustrator 25.0.1, SVG Export Plug-In . SVG Version: 6.00 Build 0)  -->
<svg version="1.1" id="Capa_1" xmlns="http://www.w3.org/2000/svg" xmlns:xlink="http://www.w3.org/1999/xlink" x="0px" y="0px"
	 viewBox="0 0 415 150" style="enable-background:new 0 0 415 150;" xml:space="preserve">
<style type="text/css">
	.st0{fill:#DDD200;}
</style>
<g>
	<rect x="0" y="0" class="st0" width="415" height="150"/>
	<g>
		<path d="M75.93,24.63l-20.45-6.17l-26.92,4.33l-4.69,17.1l0,0l-1.82,65.24l32.55,6.86l22.03,19.55l23.03-6.89l9.07-19.86
			l12.86-70.17L95.16,22.82L75.93,24.63z M31.2,25.79l24.05-3.87l19.15,5.78l3.3,11.19l-24.84,4.95l-24.97-6.4L31.2,25.79z
			 M77.06,42.46L63.6,74.53l-0.39-1.4l-0.09,0.34l-8.15-26.61L77.06,42.46z M54.15,108.44l-28.66-6.05l1.72-61.65l24.29,6.22
			l10.03,32.74L54.15,108.44z M57.25,109.85l6.07-23.65l10.58,38.43L57.25,109.85z M96.87,121.96l-18.67,5.59L65.05,79.78
			L80.86,42.1l22.16,4.32L96.87,121.96z M105.5,103.77l-4.6,10.07l5.53-67.88l10.86-8.04L105.5,103.77z M104.42,43.25l-23.26-4.54
			l-3.21-10.89l16.64-1.56l20.41,9.15L104.42,43.25z"/>
		<path d="M132.78,115.23c0.56-0.27,1.01-0.68,1.34-1.23c0.32-0.55,0.48-1.15,0.48-1.81c0-1.16-0.42-2.14-1.27-2.94
			c-0.85-0.79-1.85-1.18-3.02-1.18h-6.18v14.64h6.18c1.28,0,2.38-0.39,3.31-1.16c0.96-0.79,1.44-1.77,1.44-2.96
			c0-0.72-0.22-1.39-0.65-2C134.01,116.01,133.47,115.55,132.78,115.23z M125.96,109.71h4.36c0.69,0,1.27,0.24,1.75,0.73
			c0.48,0.48,0.72,1.07,0.72,1.74c0,0.63-0.25,1.15-0.74,1.57c-0.48,0.42-1.05,0.63-1.72,0.63h-4.36V109.71z M132.35,120.41
			c-0.57,0.45-1.25,0.67-2.04,0.67h-4.36v-5.06h4.36c0.78,0,1.46,0.24,2.04,0.72c0.59,0.5,0.89,1.12,0.89,1.85
			C133.24,119.32,132.94,119.93,132.35,120.41z"/>
		<path d="M144.36,120.17v-5.49c0-0.92-0.39-1.67-1.17-2.26c-0.75-0.56-1.63-0.84-2.65-0.84c-1.07,0-1.98,0.27-2.74,0.82
			c-0.83,0.59-1.24,1.36-1.24,2.29v0.72h1.65v-0.36c0-0.58,0.24-1.06,0.72-1.45c0.46-0.37,1.01-0.55,1.63-0.55
			c0.59,0,1.1,0.19,1.53,0.58c0.43,0.39,0.65,0.86,0.65,1.42c0,0.51-0.28,0.88-0.84,1.11c-0.4,0.18-0.99,0.3-1.77,0.36
			c-1.12,0.1-2.06,0.42-2.83,0.96c-0.85,0.61-1.27,1.38-1.27,2.31c0,0.95,0.33,1.7,1.01,2.26c0.65,0.56,1.53,0.84,2.63,0.84
			c0.67,0,1.28-0.11,1.84-0.34c0.61-0.24,1.08-0.61,1.41-1.11c0.14,0.39,0.38,0.7,0.73,0.94c0.35,0.23,0.73,0.34,1.16,0.34h0.65
			v-1.47c-0.3,0-0.56-0.1-0.77-0.31C144.47,120.73,144.36,120.47,144.36,120.17z M141.8,120.6c-0.59,0.5-1.3,0.75-2.13,0.75
			c-0.54,0-1.01-0.14-1.39-0.41c-0.42-0.31-0.62-0.69-0.62-1.16c0-0.51,0.22-0.94,0.67-1.28c0.41-0.32,0.91-0.51,1.5-0.55l0.45-0.02
			c1.18-0.1,1.99-0.33,2.43-0.7l0.02,1.47C142.73,119.47,142.42,120.1,141.8,120.6z"/>
		<path d="M149.88,112.29c-0.62,0.37-1.05,0.88-1.29,1.54v-1.9h-1.63v10.79h1.63v-5.67c0-1,0.31-1.85,0.93-2.56
			c0.64-0.74,1.42-1.11,2.35-1.11h0.72v-1.64h-0.72C151.13,111.74,150.47,111.92,149.88,112.29z"/>
		<path d="M158.08,113.04c0.81,0,1.49,0.23,2.01,0.7c0.53,0.47,0.82,1.08,0.89,1.85h1.63c-0.11-1.22-0.57-2.19-1.39-2.91
			c-0.83-0.74-1.88-1.11-3.14-1.11c-1.44,0-2.59,0.51-3.45,1.54c-0.86,1.03-1.29,2.4-1.29,4.12c0,1.72,0.43,3.09,1.29,4.12
			c0.86,1.03,2.01,1.54,3.45,1.54c1.26,0,2.3-0.39,3.11-1.18c0.83-0.76,1.3-1.77,1.41-3.04h-1.63c-0.08,0.84-0.38,1.5-0.91,2
			c-0.53,0.5-1.19,0.75-1.99,0.75c-0.94,0-1.69-0.38-2.25-1.15c-0.57-0.77-0.86-1.78-0.86-3.05c0-1.26,0.29-2.27,0.86-3.03
			C156.39,113.42,157.14,113.04,158.08,113.04z"/>
		<path d="M168.23,111.57c-1.37,0-2.47,0.51-3.3,1.54c-0.83,1.03-1.25,2.4-1.25,4.12c0,1.72,0.41,3.09,1.25,4.12
			c0.83,1.03,1.93,1.54,3.3,1.54c1.23,0,2.23-0.33,3.02-0.99c0.8-0.66,1.24-1.54,1.34-2.65h-1.63c-0.06,0.65-0.34,1.18-0.84,1.57
			c-0.5,0.4-1.13,0.59-1.89,0.59c-0.88,0-1.59-0.33-2.13-1c-0.53-0.65-0.79-1.53-0.79-2.63h7.47v-0.55c0-1.72-0.41-3.09-1.24-4.12
			C170.7,112.08,169.6,111.57,168.23,111.57z M165.3,116.31c0.08-1,0.39-1.79,0.93-2.38c0.53-0.59,1.19-0.89,1.99-0.89
			c0.8,0,1.46,0.3,1.99,0.89c0.53,0.59,0.83,1.39,0.91,2.38H165.3z"/>
		<rect x="174.51" y="108.08" width="1.63" height="14.64"/>
		<path d="M182.87,111.57c-1.48,0-2.67,0.51-3.56,1.54c-0.89,1.03-1.34,2.4-1.34,4.12c0,1.72,0.45,3.09,1.34,4.12
			c0.89,1.03,2.08,1.54,3.56,1.54c1.48,0,2.68-0.51,3.58-1.54c0.89-1.03,1.34-2.4,1.34-4.12c0-1.72-0.45-3.09-1.34-4.12
			C185.55,112.08,184.35,111.57,182.87,111.57z M185.28,120.27c-0.61,0.77-1.4,1.15-2.39,1.15c-0.99,0-1.79-0.38-2.39-1.15
			c-0.59-0.77-0.89-1.78-0.89-3.05c0-1.26,0.3-2.27,0.89-3.03c0.61-0.77,1.4-1.15,2.39-1.15c0.99,0,1.79,0.38,2.39,1.15
			c0.59,0.75,0.89,1.76,0.89,3.03C186.16,118.48,185.87,119.5,185.28,120.27z"/>
		<path d="M194.26,111.74c-0.64,0-1.22,0.11-1.74,0.34c-0.56,0.26-0.98,0.63-1.27,1.13l0-1.11h-1.63v10.62h1.63v-6.77
			c0-0.74,0.27-1.36,0.81-1.88c0.54-0.51,1.19-0.77,1.94-0.77c0.75,0,1.39,0.26,1.92,0.77c0.53,0.51,0.79,1.14,0.79,1.88v6.77h1.63
			v-6.77c0-1.16-0.4-2.14-1.19-2.96C196.35,112.16,195.39,111.74,194.26,111.74z"/>
		<path d="M208.17,120.17v-5.49c0-0.92-0.39-1.67-1.17-2.26c-0.75-0.56-1.63-0.84-2.65-0.84c-1.07,0-1.98,0.27-2.74,0.82
			c-0.83,0.59-1.24,1.36-1.24,2.29v0.72h1.65v-0.36c0-0.58,0.24-1.06,0.72-1.45c0.46-0.37,1.01-0.55,1.63-0.55
			c0.59,0,1.1,0.19,1.53,0.58c0.43,0.39,0.65,0.86,0.65,1.42c0,0.51-0.28,0.88-0.84,1.11c-0.4,0.18-0.99,0.3-1.77,0.36
			c-1.12,0.1-2.06,0.42-2.83,0.96c-0.85,0.61-1.27,1.38-1.27,2.31c0,0.95,0.33,1.7,1.01,2.26c0.65,0.56,1.53,0.84,2.63,0.84
			c0.67,0,1.28-0.11,1.84-0.34c0.61-0.24,1.08-0.61,1.41-1.11c0.14,0.39,0.38,0.7,0.73,0.94c0.35,0.23,0.73,0.34,1.16,0.34h0.65
			v-1.47c-0.3,0-0.56-0.1-0.77-0.31C208.28,120.73,208.17,120.47,208.17,120.17z M205.61,120.6c-0.59,0.5-1.3,0.75-2.13,0.75
			c-0.54,0-1.01-0.14-1.39-0.41c-0.42-0.31-0.62-0.69-0.62-1.16c0-0.51,0.22-0.94,0.67-1.28c0.41-0.32,0.91-0.51,1.5-0.55l0.45-0.02
			c1.18-0.1,1.99-0.33,2.43-0.7l0.02,1.47C206.54,119.47,206.23,120.1,205.61,120.6z"/>
		<path d="M221.49,108.08h-4.55v14.64h4.55c1.98,0,3.56-0.67,4.74-2c1.2-1.33,1.8-3.11,1.8-5.32c0-2.22-0.6-3.99-1.8-5.32
			C225.05,108.74,223.47,108.08,221.49,108.08z M224.91,119.54c-0.86,1.03-2,1.55-3.42,1.55h-2.73v-11.37h2.73
			c1.42,0,2.56,0.51,3.42,1.54c0.86,1.03,1.29,2.41,1.29,4.13C226.21,117.11,225.77,118.49,224.91,119.54z"/>
		<path d="M233.74,111.57c-1.37,0-2.47,0.51-3.3,1.54c-0.83,1.03-1.25,2.4-1.25,4.12c0,1.72,0.41,3.09,1.25,4.12
			c0.83,1.03,1.93,1.54,3.3,1.54c1.23,0,2.23-0.33,3.02-0.99c0.8-0.66,1.24-1.54,1.34-2.65h-1.63c-0.06,0.65-0.34,1.18-0.84,1.57
			c-0.5,0.4-1.13,0.59-1.89,0.59c-0.88,0-1.59-0.33-2.13-1c-0.53-0.65-0.79-1.53-0.79-2.63h7.47v-0.55c0-1.72-0.41-3.09-1.24-4.12
			C236.21,112.08,235.11,111.57,233.74,111.57z M230.82,116.31c0.08-1,0.39-1.79,0.93-2.38c0.53-0.59,1.19-0.89,1.99-0.89
			c0.8,0,1.46,0.3,1.99,0.89c0.53,0.59,0.83,1.39,0.91,2.38H230.82z"/>
		<path d="M243.99,116.12c-0.8-0.06-1.42-0.22-1.86-0.46c-0.59-0.29-0.88-0.71-0.88-1.28c0-0.47,0.18-0.84,0.55-1.13
			c0.37-0.27,0.85-0.41,1.46-0.41c0.72,0,1.29,0.2,1.72,0.6c0.43,0.4,0.65,0.93,0.65,1.59h1.63c0-1.11-0.37-1.99-1.1-2.65
			c-0.72-0.67-1.68-1.01-2.9-1.01c-1.1,0-1.98,0.27-2.63,0.82c-0.67,0.54-1.01,1.27-1.01,2.19c0,0.85,0.33,1.58,0.98,2.19
			c0.62,0.59,1.39,0.93,2.3,1.01c0.86,0.08,1.56,0.27,2.11,0.58c0.66,0.37,0.98,0.87,0.98,1.51c0,0.46-0.23,0.84-0.69,1.13
			c-0.46,0.29-1.09,0.43-1.87,0.43c-0.77,0-1.38-0.23-1.84-0.69c-0.46-0.46-0.69-1.07-0.69-1.84h-1.63c0,1.2,0.4,2.18,1.2,2.91
			c0.78,0.72,1.84,1.08,3.16,1.08c1.21,0,2.18-0.3,2.91-0.89c0.72-0.59,1.09-1.39,1.09-2.38c0-0.9-0.37-1.66-1.1-2.29
			C245.82,116.54,244.98,116.2,243.99,116.12z"/>
		<rect x="249.35" y="108.08" width="1.63" height="1.64"/>
		<rect x="249.35" y="111.74" width="1.63" height="10.98"/>
		<path d="M260.21,113.18c-0.27-0.47-0.69-0.84-1.24-1.09c-0.5-0.24-1.05-0.36-1.68-0.36c-1.33,0-2.42,0.56-3.28,1.69
			c-0.83,1.06-1.25,2.33-1.25,3.8c0,1.48,0.41,2.75,1.24,3.81c0.86,1.12,1.95,1.69,3.27,1.69c0.62,0,1.18-0.12,1.67-0.36
			c0.56-0.26,0.97-0.63,1.24-1.11l0.02,1.47c0,0.67-0.3,1.21-0.91,1.61c-0.56,0.39-1.23,0.58-2.01,0.58c-0.67,0-1.24-0.13-1.72-0.39
			c-0.56-0.31-0.89-0.73-0.98-1.28h-1.65c0.08,0.96,0.57,1.74,1.46,2.34c0.81,0.53,1.77,0.8,2.89,0.8c1.22,0,2.27-0.33,3.15-0.99
			c0.94-0.69,1.41-1.58,1.41-2.67v-10.64h-1.63V113.18z M259.47,119.99c-0.56,0.84-1.29,1.26-2.18,1.26c-0.89,0-1.61-0.42-2.15-1.26
			c-0.5-0.77-0.74-1.7-0.74-2.78c0-1.08,0.25-2,0.74-2.75c0.54-0.84,1.26-1.26,2.15-1.26c0.89,0,1.62,0.42,2.18,1.26
			c0.49,0.76,0.74,1.68,0.74,2.75C260.21,118.3,259.97,119.22,259.47,119.99z"/>
		<path d="M268.88,111.74c-0.64,0-1.22,0.11-1.74,0.34c-0.56,0.26-0.98,0.63-1.27,1.13l0-1.11h-1.63v10.62h1.63v-6.77
			c0-0.74,0.27-1.36,0.81-1.88c0.54-0.51,1.19-0.77,1.94-0.77c0.75,0,1.39,0.26,1.92,0.77c0.53,0.51,0.79,1.14,0.79,1.88v6.77h1.63
			v-6.77c0-1.16-0.4-2.14-1.19-2.96C270.98,112.16,270.01,111.74,268.88,111.74z"/>
		<polygon points="281.35,122.72 283.17,122.72 283.17,116.02 290.45,116.02 290.45,114.29 283.17,114.29 283.17,109.81 
			291.36,109.81 291.36,108.08 281.35,108.08 		"/>
		<path d="M296.71,111.57c-1.37,0-2.47,0.51-3.3,1.54c-0.83,1.03-1.25,2.4-1.25,4.12c0,1.72,0.41,3.09,1.25,4.12
			c0.83,1.03,1.93,1.54,3.3,1.54c1.23,0,2.23-0.33,3.02-0.99c0.8-0.66,1.24-1.54,1.34-2.65h-1.63c-0.06,0.65-0.34,1.18-0.84,1.57
			c-0.5,0.4-1.13,0.59-1.89,0.59c-0.88,0-1.59-0.33-2.13-1c-0.53-0.65-0.79-1.53-0.79-2.63h7.47v-0.55c0-1.72-0.41-3.09-1.24-4.12
			C299.19,112.08,298.08,111.57,296.71,111.57z M293.79,116.31c0.08-1,0.39-1.79,0.93-2.38c0.53-0.59,1.19-0.89,1.99-0.89
			c0.8,0,1.46,0.3,1.99,0.89c0.53,0.59,0.83,1.39,0.91,2.38H293.79z"/>
		<path d="M306.96,116.12c-0.8-0.06-1.42-0.22-1.86-0.46c-0.59-0.29-0.88-0.71-0.88-1.28c0-0.47,0.18-0.84,0.55-1.13
			c0.37-0.27,0.85-0.41,1.46-0.41c0.72,0,1.29,0.2,1.72,0.6c0.43,0.4,0.65,0.93,0.65,1.59h1.63c0-1.11-0.37-1.99-1.1-2.65
			c-0.72-0.67-1.68-1.01-2.9-1.01c-1.1,0-1.98,0.27-2.63,0.82c-0.67,0.54-1.01,1.27-1.01,2.19c0,0.85,0.33,1.58,0.98,2.19
			c0.62,0.59,1.39,0.93,2.3,1.01c0.86,0.08,1.56,0.27,2.11,0.58c0.66,0.37,0.98,0.87,0.98,1.51c0,0.46-0.23,0.84-0.69,1.13
			c-0.46,0.29-1.09,0.43-1.87,0.43c-0.77,0-1.38-0.23-1.84-0.69c-0.46-0.46-0.69-1.07-0.69-1.84h-1.63c0,1.2,0.4,2.18,1.2,2.91
			c0.78,0.72,1.84,1.08,3.16,1.08c1.21,0,2.18-0.3,2.91-0.89c0.72-0.59,1.09-1.39,1.09-2.38c0-0.9-0.37-1.66-1.1-2.29
			C308.79,116.54,307.95,116.2,306.96,116.12z"/>
		<path d="M314.34,108.8h-1.63v3.13h-1.46v1.47h1.46v7.49c0,0.5,0.18,0.93,0.53,1.3c0.37,0.35,0.8,0.53,1.29,0.53h1.46v-1.64h-0.93
			c-0.19,0-0.36-0.07-0.5-0.22c-0.14-0.14-0.22-0.31-0.22-0.51v-6.96h1.65v-1.47h-1.65V108.8z"/>
		<rect x="317.54" y="108.08" width="1.63" height="1.64"/>
		<rect x="317.54" y="111.74" width="1.63" height="10.98"/>
		<polygon points="325.09,120.53 322.2,111.93 320.57,111.93 324.21,122.72 326.03,122.72 329.67,111.93 328.01,111.93 		"/>
		<path d="M338.68,120.17v-5.49c0-0.92-0.39-1.67-1.17-2.26c-0.75-0.56-1.63-0.84-2.65-0.84c-1.07,0-1.98,0.27-2.74,0.82
			c-0.83,0.59-1.24,1.36-1.24,2.29v0.72h1.65v-0.36c0-0.58,0.24-1.06,0.72-1.45c0.46-0.37,1.01-0.55,1.63-0.55
			c0.59,0,1.1,0.19,1.53,0.58c0.43,0.39,0.65,0.86,0.65,1.42c0,0.51-0.28,0.88-0.84,1.11c-0.4,0.18-0.99,0.3-1.77,0.36
			c-1.12,0.1-2.06,0.42-2.83,0.96c-0.85,0.61-1.27,1.38-1.27,2.31c0,0.95,0.33,1.7,1.01,2.26c0.65,0.56,1.53,0.84,2.63,0.84
			c0.67,0,1.28-0.11,1.84-0.34c0.61-0.24,1.08-0.61,1.41-1.11c0.14,0.39,0.38,0.7,0.73,0.94c0.35,0.23,0.73,0.34,1.16,0.34h0.65
			v-1.47c-0.3,0-0.56-0.1-0.77-0.31C338.8,120.73,338.68,120.47,338.68,120.17z M336.12,120.6c-0.59,0.5-1.3,0.75-2.13,0.75
			c-0.54,0-1.01-0.14-1.39-0.41c-0.42-0.31-0.62-0.69-0.62-1.16c0-0.51,0.22-0.94,0.67-1.28c0.41-0.32,0.91-0.51,1.5-0.55l0.45-0.02
			c1.18-0.1,1.99-0.33,2.43-0.7l0.02,1.47C337.06,119.47,336.74,120.1,336.12,120.6z"/>
		<rect x="341.28" y="108.08" width="1.63" height="14.64"/>
		<path d="M356.71,117.52l0.5-0.29c1.13-0.66,2.02-1.37,2.66-2.14c0.77-0.93,1.15-1.93,1.15-2.99c0-1.2-0.49-2.22-1.46-3.03
			c-0.94-0.77-2.06-1.16-3.35-1.16c-1.33,0-2.46,0.46-3.4,1.37c-0.96,0.93-1.44,2.06-1.44,3.37v0.92H353v-0.92
			c0-0.87,0.32-1.61,0.96-2.22c0.62-0.59,1.37-0.89,2.25-0.89c0.85,0,1.58,0.22,2.2,0.67c0.65,0.5,0.98,1.12,0.98,1.88
			c0,0.8-0.34,1.56-1.03,2.26c-0.48,0.47-1.23,1-2.25,1.59c-1.52,0.88-2.7,1.83-3.54,2.84c-1.04,1.22-1.56,2.53-1.56,3.93h10.01
			v-1.64h-7.83C353.39,119.93,354.57,118.74,356.71,117.52z"/>
		<path d="M367.44,107.91c-1.67,0-3.03,0.79-4.06,2.36c-0.92,1.41-1.39,3.12-1.39,5.13c0,2.01,0.46,3.72,1.39,5.13
			c1.04,1.57,2.39,2.36,4.06,2.36c1.67,0,3.03-0.79,4.06-2.36c0.92-1.41,1.39-3.12,1.39-5.13c0-2.01-0.46-3.72-1.39-5.13
			C370.46,108.69,369.11,107.91,367.44,107.91z M370.37,119.44c-0.7,1.27-1.68,1.9-2.92,1.9c-1.26,0-2.24-0.63-2.92-1.9
			c-0.61-1.09-0.91-2.44-0.91-4.05c0-1.61,0.3-2.95,0.91-4.05c0.69-1.27,1.66-1.9,2.92-1.9c1.24,0,2.22,0.63,2.92,1.9
			c0.59,1.09,0.89,2.44,0.89,4.05C371.26,117,370.96,118.35,370.37,119.44z"/>
		<path d="M380.91,117.62l0.5-0.29c1.13-0.66,2.02-1.37,2.66-2.14c0.77-0.93,1.15-1.93,1.15-2.99c0-1.2-0.49-2.22-1.46-3.03
			c-0.94-0.77-2.06-1.16-3.35-1.16c-1.33,0-2.46,0.46-3.4,1.37c-0.96,0.93-1.44,2.06-1.44,3.37v0.92h1.63v-0.92
			c0-0.87,0.32-1.61,0.96-2.22c0.62-0.59,1.37-0.89,2.25-0.89c0.85,0,1.58,0.22,2.2,0.67c0.65,0.5,0.98,1.12,0.98,1.88
			c0,0.8-0.34,1.56-1.03,2.26c-0.48,0.47-1.23,1-2.25,1.59c-1.52,0.88-2.7,1.83-3.54,2.84c-1.04,1.22-1.56,2.53-1.56,3.93h10.01
			v-1.64h-7.83C377.6,120.03,378.77,118.84,380.91,117.62z"/>
		<path d="M391.85,108.08c-0.08,0.92-0.54,1.65-1.39,2.19c-0.78,0.5-1.71,0.75-2.78,0.75v1.28h3.64v10.43h1.63v-14.64H391.85z"/>
		<path d="M128.6,53.26h25.3v12.72h18.72v-3.92h-14.38v-8.8h14.38v-3.83h-14.38v-0.74v-9.28h14.38v-3.92h-15.18h-3.54h-29.64v30.5
			h4.33V53.26z M128.6,39.41h25.3v10.02h-25.3V39.41z"/>
		<path d="M189.89,62.07c-4.16,0-6.37-2-7.41-5.97l-4.07,1.18c1.47,5.8,5.55,8.72,11.48,8.72c6.15,0,10.96-3.49,10.96-8.98
			c0-5.19-3.34-7.8-10.14-9.19c-4.51-0.87-6.98-1.87-6.98-4.75c0-3.18,2.56-4.88,6.15-4.88c3.77,0,5.55,2.14,6.37,5.58l4.03-1.18
			c-1.3-5.19-4.77-8.32-10.4-8.32c-6.02,0-10.48,3.49-10.48,8.8c0,5.23,4.03,7.71,10.57,8.89c5.72,1.09,6.54,3.01,6.54,5.05
			C196.52,60.41,193.66,62.07,189.89,62.07z"/>
		<polygon points="224,35.49 201.6,35.49 201.6,39.5 210.61,39.5 210.61,65.99 214.94,65.99 214.94,39.5 224,39.5 		"/>
		<path d="M149.14,85.51c0-7.76-4.07-15.12-14.95-15.12h-9.92v30.5h10.31C144.2,100.89,149.14,93.83,149.14,85.51z M128.6,96.97
			V74.31h5.37c8.66,0,10.83,5.45,10.83,11.16c0,5.71-2.56,11.5-10.44,11.5H128.6z"/>
		<polygon points="172.62,74.31 172.62,70.39 153.91,70.39 153.91,100.89 172.62,100.89 172.62,96.97 158.24,96.97 158.24,87.42 
			172.62,87.42 172.62,83.59 158.24,83.59 158.24,74.31 		"/>
		<path d="M190.72,82.72c-4.51-0.87-6.98-1.87-6.98-4.75c0-3.18,2.56-4.88,6.15-4.88c3.77,0,5.55,2.14,6.37,5.58l4.03-1.18
			c-1.3-5.19-4.77-8.32-10.4-8.32c-6.02,0-10.48,3.49-10.48,8.8c0,5.23,4.03,7.71,10.57,8.89c5.72,1.09,6.54,3.01,6.54,5.05
			c0,3.4-2.86,5.05-6.63,5.05c-4.16,0-6.37-2-7.41-5.97l-4.07,1.18c1.47,5.8,5.55,8.72,11.48,8.72c6.15,0,10.96-3.49,10.96-8.98
			C200.85,86.73,197.52,84.11,190.72,82.72z"/>
		<rect x="210.57" y="70.39" width="4.33" height="30.5"/>
		<path d="M235.91,100.89c5.89,0,9.14-3.09,10.09-4.62l0.65,4.01h3.08V83.81h-11.31v3.75h7.06c-0.17,4.53-2.95,9.32-9.44,9.32
			c-6.59,0-11.09-5.05-11.09-11.85c0-6.54,4.51-11.85,11.05-11.85c4.59,0,7.32,2.4,8.66,5.8l4.03-1.39
			c-1.86-4.92-6.15-8.41-12.87-8.41c-8.75,0-15.21,6.89-15.21,15.86C220.62,94.31,226.94,100.89,235.91,100.89z"/>
		<polygon points="276.28,93.87 260.56,70.39 256.01,70.39 256.01,100.89 260.34,100.89 260.34,77.45 276.11,100.89 280.66,100.89 
			280.66,70.39 276.28,70.39 		"/>
		<rect x="284.12" y="97.14" width="21.66" height="3.75"/>
		<path d="M325.27,85.07v-0.09c2.12-1.18,3.77-3.27,3.77-6.54c0-4.53-2.86-8.06-8.97-8.06h-10.96v30.5h11.39
			c5.98,0,9.66-3.66,9.66-8.71C330.17,87.73,327.35,85.77,325.27,85.07z M313.45,74.22h6.5c2.99,0,4.85,1.7,4.85,4.49
			c0,2.88-1.6,4.84-4.85,4.84h-6.5V74.22z M320.51,97.05h-7.06v-9.85h6.67c4.07,0,5.72,2.14,5.72,4.88
			C325.84,94.79,324.1,97.05,320.51,97.05z"/>
		<path d="M362.48,92l-4.12-1.35c-1.21,3.53-4.12,6.23-9.01,6.23c-6.37,0-10.96-4.84-10.96-11.85c0-6.8,4.59-11.85,10.83-11.85
			c4.77,0,7.89,2.57,9.23,6.84l4.16-1.39c-1.99-6.01-6.93-9.46-13.43-9.46c-8.75,0-15.12,6.67-15.12,15.86
			c0,9.46,6.28,15.86,15.25,15.86C355.99,100.89,360.4,97.49,362.48,92z"/>
		<polygon points="372.36,77.45 388.13,100.89 392.68,100.89 392.68,70.39 388.3,70.39 388.3,93.87 372.57,70.39 368.02,70.39 
			368.02,100.89 372.36,100.89 		"/>
	</g>
</g>
</svg>
